<?xml version="1.0" standalone="no"?>
<!DOCTYPE svg PUBLIC "-//W3C//DTD SVG 20010904//EN"
 "http://www.w3.org/TR/2001/REC-SVG-20010904/DTD/svg10.dtd">
<svg version="1.0" xmlns="http://www.w3.org/2000/svg"
 width="512.000000pt" height="512.000000pt" viewBox="0 0 512.000000 512.000000"
 preserveAspectRatio="xMidYMid meet">

<g transform="translate(0.000000,512.000000) scale(0.100000,-0.100000)"
fill="#000000" stroke="none">
<path d="M1494 4120 c-44 -104 -60 -159 -83 -275 -36 -188 -39 -166 23 -198
30 -16 92 -52 138 -80 l83 -51 -70 -17 c-184 -43 -310 -127 -334 -224 -18 -72
8 -183 61 -257 11 -16 18 -32 15 -35 -15 -15 -153 -35 -237 -35 -105 -1 -162
10 -260 49 -210 84 -371 268 -396 454 l-7 52 -15 -29 c-86 -165 -157 -575
-132 -763 12 -84 11 -89 -19 -189 -61 -207 -77 -367 -46 -487 28 -107 76 -140
137 -95 16 12 31 20 33 18 2 -1 8 -29 14 -61 12 -69 34 -117 64 -146 13 -11
100 -52 194 -90 196 -80 208 -85 321 -153 97 -58 192 -143 270 -243 168 -213
293 -335 341 -335 12 0 44 11 71 25 27 14 53 25 59 25 5 0 19 -25 31 -55 15
-37 32 -60 49 -69 14 -8 111 -41 215 -76 131 -43 197 -60 215 -55 14 3 42 24
62 46 24 25 42 37 52 33 9 -3 34 -34 56 -68 60 -92 69 -95 281 -97 177 -2 182
0 201 59 26 83 63 92 109 29 17 -24 47 -51 66 -60 77 -37 281 -9 332 46 12 12
25 40 29 61 13 60 32 66 97 31 51 -27 56 -28 97 -16 49 15 111 55 151 98 37
40 57 119 64 253 l5 115 -25 -45 c-63 -117 -176 -203 -327 -250 -346 -109
-736 -114 -1108 -14 -100 27 -179 63 -272 121 l-55 36 49 46 c173 161 262 448
213 689 -9 45 -19 89 -22 97 -4 10 12 5 53 -15 87 -44 173 -63 268 -58 125 7
175 46 175 136 l0 40 38 -13 c20 -7 60 -17 89 -23 l52 -9 -97 105 c-176 192
-157 178 -245 191 -43 6 -111 11 -152 11 l-74 0 -35 -58 c-45 -74 -86 -165
-120 -270 -28 -82 -47 -105 -68 -84 -19 19 17 136 82 270 59 121 59 122 32
116 -51 -13 -123 -44 -202 -89 -107 -61 -114 -60 -105 12 8 68 45 181 91 282
19 41 34 75 34 76 0 2 -26 -4 -57 -12 -51 -12 -173 -68 -231 -104 -11 -7 -27
-9 -36 -6 -14 5 -15 16 -10 64 9 76 47 207 83 288 27 58 28 65 12 65 -32 0
-126 -37 -205 -80 -42 -23 -83 -39 -91 -36 -63 24 94 122 271 169 l81 22 64
84 c35 47 81 98 102 115 34 27 39 28 53 14 12 -12 13 -20 5 -36 -6 -10 -7 -23
-3 -27 4 -5 2 -5 -5 -2 -10 7 -143 -126 -143 -143 0 -4 37 -7 83 -8 45 -1 108
-8 140 -16 53 -12 56 -12 45 3 -7 9 -1 6 12 -5 14 -12 42 -27 62 -33 53 -17
62 -33 39 -63 -16 -20 -18 -28 -8 -38 10 -12 9 -12 -4 -2 -13 9 -22 5 -50 -26
-51 -53 -89 -102 -89 -113 0 -5 28 -9 63 -9 68 0 170 -15 202 -30 11 -5 37
-16 58 -24 40 -16 49 -43 22 -66 -12 -10 -13 -16 -3 -29 11 -14 11 -14 -3 -3
-15 11 -24 5 -68 -45 l-52 -58 93 -7 c51 -4 99 -10 107 -13 12 -5 12 -3 0 12
-12 16 -12 16 8 0 12 -10 43 -24 70 -31 38 -10 49 -17 51 -35 3 -16 -2 -24
-17 -28 -19 -5 -16 -11 31 -67 145 -171 385 -377 423 -362 23 9 106 126 138
196 64 141 89 381 53 516 -21 80 -21 79 14 54 57 -41 139 -63 247 -68 90 -4
107 -2 147 17 36 18 48 31 62 66 9 26 14 55 10 69 -6 24 -5 25 20 16 49 -19
311 -64 321 -56 1 1 -33 28 -77 59 -43 31 -124 97 -179 147 -91 82 -106 91
-163 105 -36 8 -112 15 -175 15 l-112 0 -54 -82 c-66 -99 -118 -202 -143 -280
-13 -42 -23 -58 -35 -58 -27 0 -31 16 -15 63 20 58 86 197 131 275 25 42 32
62 22 62 -44 0 -208 -70 -303 -130 -34 -21 -57 -6 -49 32 15 71 59 190 104
282 27 53 43 96 37 96 -43 0 -177 -50 -259 -97 -63 -35 -86 -41 -88 -20 -7 81
42 273 97 378 12 24 12 29 1 29 -27 0 -128 -39 -207 -81 -62 -32 -84 -39 -93
-30 -18 18 1 39 71 81 61 37 207 90 249 90 12 0 30 11 40 25 43 61 137 175
145 175 18 0 6 24 -40 78 -27 31 -78 99 -113 151 -35 52 -81 106 -102 122 -82
60 -206 59 -348 0 -90 -38 -142 -74 -182 -123 -55 -69 -48 -193 18 -303 19
-30 32 -55 30 -55 -2 0 -37 -7 -77 -15 -93 -20 -238 -20 -323 0 -253 58 -472
277 -493 492 l-7 68 -31 -75z m551 -940 c21 -22 37 -40 34 -40 -3 0 -23 18
-44 40 -21 22 -37 40 -34 40 3 0 23 -18 44 -40z m130 -150 c10 -11 16 -20 13
-20 -3 0 -13 9 -23 20 -10 11 -16 20 -13 20 3 0 13 -9 23 -20z m36 -47 c13
-16 12 -17 -3 -4 -10 7 -18 15 -18 17 0 8 8 3 21 -13z m30 -40 c13 -16 12 -17
-3 -4 -10 7 -18 15 -18 17 0 8 8 3 21 -13z m350 -510 c13 -16 12 -17 -3 -4
-10 7 -18 15 -18 17 0 8 8 3 21 -13z m30 -40 c13 -16 12 -17 -3 -4 -17 13 -22
21 -14 21 2 0 10 -8 17 -17z m-2180 -20 c13 -16 12 -17 -3 -4 -10 7 -18 15
-18 17 0 8 8 3 21 -13z m850 -620 c13 -16 12 -17 -3 -4 -10 7 -18 15 -18 17 0
8 8 3 21 -13z m50 -40 c13 -16 12 -17 -3 -4 -10 7 -18 15 -18 17 0 8 8 3 21
-13z m64 -53 c10 -11 16 -20 13 -20 -3 0 -13 9 -23 20 -10 11 -16 20 -13 20 3
0 13 -9 23 -20z m95 -85 c19 -19 32 -35 29 -35 -3 0 -20 16 -39 35 -19 19 -32
35 -29 35 3 0 20 -16 39 -35z m160 -152 c0 -8 -9 0 -50 45 l-45 47 48 -45 c26
-24 47 -45 47 -47z m76 -65 l29 -33 -32 29 c-31 28 -38 36 -30 36 2 0 16 -15
33 -32z m84 -73 c13 -14 21 -25 18 -25 -2 0 -15 11 -28 25 -13 14 -21 25 -18
25 2 0 15 -11 28 -25z m65 -55 c10 -11 16 -20 13 -20 -3 0 -13 9 -23 20 -10
11 -16 20 -13 20 3 0 13 -9 23 -20z m50 -40 c10 -11 16 -20 13 -20 -3 0 -13 9
-23 20 -10 11 -16 20 -13 20 3 0 13 -9 23 -20z"/>
<path d="M3146 3679 c-36 -39 -66 -74 -66 -78 0 -3 42 -7 93 -8 50 -1 112 -6
137 -12 24 -5 45 -9 46 -8 1 1 -31 41 -71 89 l-73 88 -66 -71z"/>
<path d="M3010 3476 c-35 -77 -78 -204 -86 -256 l-6 -37 70 34 c68 33 204 73
247 73 15 0 31 13 49 40 15 22 51 69 81 104 l54 65 -72 16 c-40 10 -125 20
-190 22 l-117 6 -30 -67z"/>
<path d="M3390 3373 l-62 -68 100 -6 c55 -4 112 -9 126 -13 14 -3 26 -4 26 0
0 9 -114 153 -122 154 -3 0 -34 -30 -68 -67z"/>
<path d="M3298 3243 c-20 -5 -110 -176 -143 -271 -13 -37 -22 -68 -20 -70 1
-1 33 13 71 32 72 36 171 69 239 80 32 6 46 15 65 44 14 20 49 63 78 94 l54
57 -41 11 c-83 22 -256 35 -303 23z"/>
<path d="M3623 3097 c-29 -33 -52 -61 -50 -62 1 -2 50 -5 109 -8 l108 -5 -47
59 c-25 32 -51 63 -57 68 -7 6 -28 -11 -63 -52z"/>
<path d="M1914 2793 c-33 -72 -84 -229 -84 -259 0 -9 20 -4 72 18 80 34 142
53 203 63 34 5 45 14 70 53 16 26 51 71 78 99 l49 53 -27 10 c-45 17 -194 40
-262 40 l-64 0 -35 -77z"/>
<path d="M2128 2474 c-36 -78 -88 -218 -88 -240 0 -2 37 15 83 36 45 22 115
48 156 59 l74 18 69 84 c37 46 68 87 68 90 0 13 -137 41 -225 46 l-91 6 -46
-99z"/>
<path d="M4901 1945 c-4 -117 -96 -215 -286 -306 -128 -62 -194 -77 -390 -90
-143 -9 -497 -5 -550 7 l-20 4 20 -12 c75 -48 130 -128 149 -220 6 -25 11 -28
50 -28 52 0 92 27 101 69 8 36 40 71 65 71 11 0 30 -17 47 -42 42 -63 83 -83
168 -81 78 1 173 23 211 48 26 16 38 39 48 87 10 45 37 51 90 23 58 -31 78
-31 143 -1 71 34 136 101 152 157 17 60 26 277 13 309 -9 21 -11 22 -11 5z"/>
</g>
</svg>
