<?xml version="1.0" standalone="no"?>
<!DOCTYPE svg PUBLIC "-//W3C//DTD SVG 20010904//EN"
 "http://www.w3.org/TR/2001/REC-SVG-20010904/DTD/svg10.dtd">
<svg version="1.0" xmlns="http://www.w3.org/2000/svg"
 width="512.000000pt" height="512.000000pt" viewBox="0 0 512.000000 512.000000"
 preserveAspectRatio="xMidYMid meet">

<g transform="translate(0.000000,512.000000) scale(0.100000,-0.100000)"
fill="#000000" stroke="none">
<path d="M1446 4338 c-14 -19 -26 -41 -26 -48 0 -27 380 -652 563 -925 118
-177 263 -382 314 -445 66 -82 183 -199 225 -226 21 -13 63 -51 95 -85 62 -65
186 -165 241 -193 81 -42 83 19 6 178 -53 107 -57 121 -62 204 -4 74 -1 103
18 163 42 141 153 281 278 351 l63 35 -131 94 c-459 331 -941 639 -1320 844
-104 57 -157 80 -191 83 -43 4 -48 2 -73 -30z"/>
<path d="M1348 4140 c-3 -17 -1 -33 4 -36 13 -8 16 -4 20 30 4 39 -18 45 -24
6z"/>
<path d="M1330 4010 c0 -32 14 -40 24 -14 10 27 7 44 -9 44 -10 0 -15 -10 -15
-30z"/>
<path d="M1329 3913 c0 -5 -2 -18 -5 -30 -3 -16 1 -23 11 -23 10 0 15 10 15
30 0 17 -4 30 -10 30 -5 0 -10 -3 -11 -7z"/>
<path d="M1330 3765 c0 -33 12 -46 25 -25 8 12 -5 60 -16 60 -5 0 -9 -16 -9
-35z"/>
<path d="M361 3714 c-11 -14 -23 -34 -26 -45 -16 -49 656 -1107 879 -1384 168
-210 547 -529 602 -508 27 10 16 75 -30 164 -64 123 -80 185 -73 283 6 91 33
174 84 254 60 95 118 149 246 226 l28 17 -48 33 c-26 17 -122 86 -212 151
-289 208 -703 473 -1050 673 -296 170 -357 191 -400 136z"/>
<path d="M1344 3648 c3 -13 6 -26 6 -30 0 -5 5 -8 10 -8 6 0 10 14 10 30 0 21
-5 30 -16 30 -12 0 -15 -6 -10 -22z"/>
<path d="M1370 3533 c0 -23 17 -49 26 -41 9 10 -4 58 -16 58 -6 0 -10 -8 -10
-17z"/>
<path d="M1406 3432 c-8 -14 11 -62 25 -62 7 0 9 10 4 28 -8 33 -20 47 -29 34z"/>
<path d="M1450 3307 c0 -19 27 -53 36 -45 9 10 -12 58 -26 58 -5 0 -10 -6 -10
-13z"/>
<path d="M1517 3213 c-12 -11 -8 -20 17 -37 14 -9 27 -12 30 -7 7 11 -38 53
-47 44z"/>
<path d="M1615 3140 c-3 -5 5 -16 17 -24 27 -20 38 -20 38 -3 0 17 -47 40 -55
27z"/>
<path d="M1726 3083 c-11 -12 -6 -20 20 -32 28 -13 40 -9 29 8 -9 16 -41 31
-49 24z"/>
<path d="M1826 3011 c-5 -8 34 -41 49 -41 12 0 4 24 -12 36 -21 16 -30 17 -37
5z"/>
<path d="M1926 2941 c-7 -10 43 -46 51 -37 7 7 -26 46 -38 46 -4 0 -10 -4 -13
-9z"/>
<path d="M2020 2861 c0 -12 46 -41 54 -34 8 9 -24 43 -41 43 -7 0 -13 -4 -13
-9z"/>
<path d="M2116 2781 c-3 -4 6 -13 20 -20 35 -16 40 -14 19 9 -20 22 -31 25
-39 11z"/>
<path d="M4876 1775 c-19 -30 -20 -35 -3 -35 16 0 40 47 28 55 -5 2 -16 -6
-25 -20z"/>
<path d="M4886 1663 c-44 -107 -177 -202 -341 -243 -155 -40 -469 -44 -679
-10 -82 13 -85 13 -79 -10 6 -23 7 -24 163 -52 169 -30 464 -32 585 -5 114 27
219 79 281 142 43 43 56 65 74 123 26 85 23 122 -4 55z"/>
<path d="M4797 1675 c-9 -13 -13 -26 -8 -29 11 -7 53 38 44 47 -10 11 -17 8
-36 -18z"/>
<path d="M4705 1590 c-10 -11 -15 -23 -12 -26 9 -10 59 25 52 36 -9 15 -20 12
-40 -10z"/>
<path d="M3724 1538 c-8 -13 -4 -16 26 -20 14 -2 26 2 27 7 3 13 -45 26 -53
13z"/>
<path d="M4603 1540 c-13 -5 -23 -15 -23 -21 0 -7 9 -9 23 -5 12 3 25 6 30 6
4 0 7 7 7 15 0 17 -5 18 -37 5z"/>
<path d="M3840 1510 c0 -5 6 -10 13 -10 6 0 22 -3 35 -6 16 -5 22 -2 22 10 0
12 -9 16 -35 16 -19 0 -35 -4 -35 -10z"/>
<path d="M4488 1512 c-17 -2 -28 -9 -28 -19 0 -12 6 -14 27 -8 32 8 36 11 32
22 -2 4 -16 7 -31 5z"/>
<path d="M3970 1496 c0 -11 9 -16 30 -16 17 0 30 5 30 10 0 6 -6 10 -14 10 -8
0 -21 3 -30 6 -11 4 -16 1 -16 -10z"/>
<path d="M4358 1493 c-29 -7 -20 -23 12 -23 20 0 30 5 30 15 0 15 -9 17 -42 8z"/>
<path d="M4090 1480 c0 -5 14 -10 30 -10 17 0 30 5 30 10 0 6 -13 10 -30 10
-16 0 -30 -4 -30 -10z"/>
<path d="M4213 1478 c2 -7 16 -13 32 -13 16 0 30 6 33 13 2 8 -8 12 -33 12
-25 0 -35 -4 -32 -12z"/>
<path d="M3793 1020 c-53 -109 -196 -203 -369 -240 -295 -64 -772 -13 -1173
125 -79 27 -107 28 -44 2 21 -9 83 -34 138 -57 115 -48 271 -88 494 -127 136
-24 181 -27 351 -27 168 1 206 4 275 22 114 31 202 77 262 138 42 42 55 64 73
122 26 86 23 105 -7 42z"/>
</g>
</svg>
