<?xml version="1.0" standalone="no"?>
<!DOCTYPE svg PUBLIC "-//W3C//DTD SVG 20010904//EN"
 "http://www.w3.org/TR/2001/REC-SVG-20010904/DTD/svg10.dtd">
<svg version="1.0" xmlns="http://www.w3.org/2000/svg"
 width="512.000000pt" height="512.000000pt" viewBox="0 0 512.000000 512.000000"
 preserveAspectRatio="xMidYMid meet">

<g transform="translate(0.000000,512.000000) scale(0.100000,-0.100000)"
fill="#000000" stroke="none">
<path d="M3510 4699 c-276 -34 -471 -113 -618 -253 -129 -122 -207 -266 -248
-456 -36 -166 -22 -463 31 -669 13 -52 13 -55 -10 -82 -26 -32 -30 -51 -46
-241 -11 -133 -11 -137 11 -183 19 -39 57 -76 92 -87 11 -4 -14 -136 -56 -299
-87 -340 -84 -587 11 -871 114 -345 371 -559 753 -629 113 -21 439 -18 565 5
424 77 750 307 923 651 95 191 117 318 109 639 -5 227 -22 377 -63 578 l-15
78 59 55 c80 74 106 133 107 240 0 67 -4 89 -28 136 -49 100 -149 173 -255
186 l-47 5 -34 107 c-170 539 -300 772 -517 927 -186 133 -464 196 -724 163z
m305 -154 c114 -20 229 -65 320 -126 126 -85 221 -208 306 -399 49 -111 189
-509 189 -539 0 -14 -16 -22 -67 -36 -38 -10 -73 -20 -78 -22 -6 -2 -21 40
-33 96 -82 363 -224 604 -438 747 -229 152 -491 173 -734 57 -58 -28 -94 -55
-155 -117 -88 -88 -131 -162 -162 -277 -26 -98 -22 -280 11 -451 14 -76 26
-144 26 -153 0 -12 -15 -15 -84 -15 l-83 0 -22 103 c-49 235 -50 418 -6 594
51 201 169 350 345 437 192 94 464 136 665 101z m-80 -320 c219 -56 392 -230
492 -495 30 -82 97 -329 91 -336 -6 -6 -281 -43 -398 -54 -155 -14 -487 -30
-636 -30 l-121 0 -7 33 c-73 362 -73 523 2 661 54 101 169 187 293 220 71 19
210 20 284 1z m1088 -1492 c38 -219 48 -318 54 -515 8 -283 -12 -399 -98 -572
-181 -364 -588 -585 -1079 -586 -397 0 -684 142 -824 410 -61 117 -107 294
-121 470 -9 113 14 288 65 483 21 84 42 176 46 205 7 59 5 58 101 40 63 -11
65 -13 88 -57 57 -113 148 -191 295 -252 129 -54 229 -73 400 -73 90 0 180 5
215 12 252 54 407 158 493 331 23 46 42 89 42 97 0 8 24 20 58 30 31 9 98 28
147 44 50 15 93 29 96 29 3 1 13 -43 22 -96z m-517 -61 c-23 -46 -102 -117
-164 -150 -114 -61 -197 -77 -392 -77 -156 0 -183 3 -250 23 -96 30 -218 94
-256 133 l-29 30 100 -6 c93 -7 102 -6 128 15 15 12 27 28 27 36 0 11 19 14
94 14 89 0 95 -1 110 -25 28 -43 45 -46 173 -35 164 15 429 53 471 69 1 1 -4
-12 -12 -27z"/>
<path d="M1306 4189 c-215 -31 -404 -126 -542 -271 -154 -162 -252 -366 -395
-819 l-34 -107 -49 -6 c-106 -12 -213 -93 -259 -194 -33 -71 -31 -189 4 -262
23 -50 73 -107 123 -143 17 -13 17 -17 2 -93 -41 -203 -58 -353 -63 -580 -6
-256 2 -346 44 -479 55 -175 153 -332 290 -467 240 -234 545 -352 943 -365
705 -23 1105 338 1146 1037 8 134 -12 282 -71 518 -24 97 -46 195 -49 217 -5
38 -4 41 31 60 24 13 45 36 61 68 25 47 25 48 13 185 -16 190 -20 209 -47 241
-20 24 -22 33 -14 62 23 79 51 262 56 374 13 251 -41 476 -154 641 -52 78
-172 190 -252 237 -203 118 -542 181 -784 146z m276 -150 c274 -30 487 -127
607 -279 120 -152 174 -383 151 -645 -9 -108 -41 -282 -55 -305 -4 -6 -43 -10
-87 -10 l-81 0 6 38 c3 20 15 91 27 157 29 154 31 333 6 425 -31 115 -74 188
-161 275 -115 116 -240 173 -417 191 -75 7 -217 -10 -260 -32 -48 -25 -51 -93
-6 -127 24 -18 32 -19 84 -9 290 59 558 -97 613 -356 22 -105 16 -180 -46
-531 l-6 -34 -253 7 c-336 8 -614 31 -837 67 l-68 11 7 36 c18 101 79 296 118
378 52 109 92 170 158 241 56 61 62 96 23 133 -43 40 -81 31 -144 -37 -133
-141 -230 -347 -291 -619 -13 -54 -24 -100 -25 -101 -2 -3 -146 36 -156 43 -8
5 108 358 160 487 144 360 338 535 654 592 92 17 152 18 279 4z m-1121 -1764
c68 -20 132 -39 142 -41 9 -3 17 -11 17 -19 0 -7 19 -50 41 -95 87 -174 248
-282 494 -331 111 -22 350 -17 458 9 234 58 377 155 455 307 20 39 22 41 92
53 39 7 76 10 81 7 5 -4 9 -17 9 -30 0 -13 15 -85 34 -158 97 -378 104 -578
30 -836 -68 -232 -184 -381 -374 -480 -249 -130 -652 -147 -980 -41 -380 123
-654 430 -711 800 -17 109 -6 471 19 635 34 216 45 266 57 261 7 -2 68 -21
136 -41z m669 -142 c105 -14 205 -18 447 -18 172 0 313 -3 313 -7 0 -13 -100
-79 -164 -108 -109 -50 -213 -70 -359 -70 -193 0 -320 31 -435 107 -48 32
-132 122 -132 142 0 4 44 -1 98 -10 53 -10 158 -26 232 -36z"/>
</g>
</svg>
