<?xml version="1.0" standalone="no"?>
<!DOCTYPE svg PUBLIC "-//W3C//DTD SVG 20010904//EN"
 "http://www.w3.org/TR/2001/REC-SVG-20010904/DTD/svg10.dtd">
<svg version="1.0" xmlns="http://www.w3.org/2000/svg"
 width="512.000000pt" height="512.000000pt" viewBox="0 0 512.000000 512.000000"
 preserveAspectRatio="xMidYMid meet">

<g transform="translate(0.000000,512.000000) scale(0.100000,-0.100000)"
fill="#000000" stroke="none">
<path d="M4128 5078 c-18 -15 -150 -175 -344 -418 -579 -725 -981 -1344 -1322
-2040 -80 -162 -164 -326 -188 -363 -82 -127 -168 -190 -299 -218 -40 -8 -155
-13 -340 -14 -300 -2 -353 -8 -540 -62 -350 -101 -791 -380 -972 -615 -65 -85
-114 -196 -120 -271 -8 -99 -6 -100 286 -145 132 -20 241 -39 241 -42 -1 -3
-32 -27 -71 -54 -219 -155 -379 -365 -395 -522 -6 -54 -4 -63 17 -86 22 -24
40 -29 184 -52 1040 -165 1869 -190 2344 -70 170 43 312 137 502 331 216 221
341 394 795 1098 162 252 238 362 323 467 74 91 155 160 185 156 12 -2 29 -22
44 -52 98 -197 101 -748 10 -1669 l-21 -218 20 -27 c29 -39 101 -53 268 -54
155 -1 205 10 238 54 18 24 19 35 8 199 -52 805 -38 1553 40 2094 11 77 36
221 57 320 31 155 36 199 36 320 1 154 -14 237 -66 383 l-30 84 16 81 c39 203
28 375 -38 572 -120 356 -347 623 -670 785 -120 60 -168 72 -198 48z m162
-209 c328 -179 561 -528 600 -897 6 -52 7 -104 4 -118 -6 -24 -7 -23 -38 19
-121 168 -304 316 -504 409 -87 40 -126 48 -154 32 -52 -29 -744 -913 -883
-1127 -10 -15 -19 -26 -22 -24 -8 9 200 533 314 792 89 202 216 453 281 558
53 85 302 396 317 396 6 1 44 -18 85 -40z m43 -760 c332 -168 575 -519 616
-892 13 -112 5 -190 -42 -437 -37 -193 -77 -517 -99 -800 -17 -227 -17 -1088
1 -1395 7 -132 14 -251 15 -265 l1 -25 -97 0 c-53 0 -99 3 -103 6 -3 4 1 74 9
155 67 647 82 1190 40 1464 -41 272 -136 411 -272 398 -76 -7 -121 -36 -222
-137 -112 -113 -195 -227 -443 -612 -453 -703 -649 -961 -865 -1140 -156 -129
-253 -169 -497 -203 -457 -65 -1045 -40 -1880 80 -137 20 -252 38 -253 39 -8
7 52 106 98 161 120 145 423 353 668 458 94 40 249 91 309 101 39 6 45 4 100
-41 379 -309 822 -326 1198 -47 195 145 351 374 483 710 28 70 87 232 131 359
208 601 394 1060 578 1429 142 283 154 302 366 558 49 59 91 107 93 107 3 0
33 -14 67 -31z m-1000 -376 c-74 -178 -186 -475 -278 -734 -47 -134 -104 -293
-126 -354 -24 -67 -74 -170 -129 -267 -50 -87 -115 -204 -145 -261 -84 -158
-213 -273 -391 -347 -206 -86 -410 -76 -618 29 -50 26 -90 50 -89 54 2 4 96 9
210 11 229 3 273 11 398 70 88 41 170 116 235 214 28 41 114 203 190 359 209
427 366 701 633 1106 82 125 151 227 152 227 2 0 -17 -48 -42 -107z m40 -815
c-76 -187 -200 -518 -303 -812 -114 -326 -142 -398 -205 -531 -159 -332 -370
-532 -640 -606 -89 -24 -237 -29 -319 -10 -72 17 -194 67 -253 104 l-52 32
217 1 c191 0 227 3 296 22 144 40 246 114 342 248 42 59 102 174 252 484 79
162 210 400 345 625 79 133 365 575 372 575 1 0 -22 -60 -52 -132z m-2021
-1121 c202 -164 416 -247 634 -247 142 0 253 28 433 107 21 9 -75 -166 -126
-232 -48 -62 -107 -103 -193 -137 -51 -20 -79 -22 -380 -29 -278 -6 -340 -10
-425 -28 -136 -30 -288 -82 -423 -147 l-113 -55 -157 21 c-201 27 -415 60
-420 64 -17 18 91 169 176 247 155 142 423 308 637 394 81 33 250 84 282 84
11 1 45 -18 75 -42z"/>
</g>
</svg>
