<?xml version="1.0" standalone="no"?>
<!DOCTYPE svg PUBLIC "-//W3C//DTD SVG 20010904//EN"
 "http://www.w3.org/TR/2001/REC-SVG-20010904/DTD/svg10.dtd">
<svg version="1.0" xmlns="http://www.w3.org/2000/svg"
 width="512.000000pt" height="512.000000pt" viewBox="0 0 512.000000 512.000000"
 preserveAspectRatio="xMidYMid meet">

<g transform="translate(0.000000,512.000000) scale(0.100000,-0.100000)"
fill="#000000" stroke="none">
<path d="M2225 3608 c-85 -31 -166 -107 -263 -248 -98 -142 -171 -174 -402
-174 -145 1 -235 12 -397 49 -138 33 -358 107 -446 152 -106 53 -173 73 -262
80 -98 6 -173 -18 -233 -76 -57 -55 -75 -102 -142 -357 -76 -289 -88 -377 -71
-533 7 -64 13 -233 14 -376 2 -250 3 -262 26 -313 30 -66 113 -144 178 -167
35 -12 106 -19 268 -26 121 -5 335 -13 475 -19 140 -6 603 -26 1029 -45 1063
-47 1703 -62 2043 -47 277 13 369 23 637 72 210 38 261 54 311 97 84 72 118
183 127 413 7 185 -6 249 -60 297 -18 16 -215 111 -447 217 -228 104 -604 277
-835 384 -532 247 -940 429 -1217 543 -226 92 -264 101 -333 77z m126 -167
c24 -11 62 -26 83 -35 l39 -16 -116 -119 c-109 -111 -117 -122 -117 -159 0
-49 27 -76 76 -76 31 0 49 14 179 144 l144 143 123 -53 c68 -29 127 -57 133
-62 5 -5 -33 -51 -97 -116 -118 -119 -133 -142 -113 -188 14 -34 31 -44 78
-44 26 0 51 20 168 136 92 92 143 135 153 131 8 -3 80 -36 161 -73 l146 -67
-90 -92 c-49 -50 -93 -103 -96 -117 -12 -48 28 -97 79 -98 24 0 50 21 147 117
l118 116 236 -108 c130 -60 238 -112 240 -116 7 -10 -156 -87 -235 -110 -68
-20 -108 -23 -410 -29 -273 -7 -345 -11 -390 -25 -84 -26 -129 -52 -191 -111
-73 -70 -118 -158 -132 -258 l-11 -76 -31 4 c-16 3 -120 8 -230 11 -237 7
-535 28 -805 56 -201 21 -481 56 -485 61 -1 2 -14 43 -29 91 -126 410 -388
717 -712 836 -87 32 -88 35 -55 101 40 80 140 89 285 24 410 -184 795 -267
1086 -235 200 21 305 79 401 219 83 122 110 153 158 184 53 33 56 33 112 9z
m2229 -1003 c198 -90 360 -165 360 -168 0 -6 -313 -58 -510 -85 -314 -43 -771
-81 -1077 -90 -104 -3 -263 -8 -355 -10 l-168 -6 0 32 c0 94 68 187 172 235
l63 29 325 6 c294 6 333 8 409 29 117 31 233 81 321 139 41 27 81 50 88 50 7
1 175 -72 372 -161z m-4120 -279 c1379 -282 2954 -314 4315 -88 66 10 132 22
148 25 l27 6 0 -69 c0 -136 -39 -232 -103 -252 -17 -6 -105 -24 -195 -41 -530
-98 -919 -100 -2822 -14 -426 19 -944 41 -1150 48 -401 14 -408 15 -458 69
-13 14 -28 42 -33 64 -9 42 -12 296 -3 305 3 3 33 -1 67 -9 34 -8 127 -28 207
-44z"/>
</g>
</svg>
