<?xml version="1.0" standalone="no"?>
<!DOCTYPE svg PUBLIC "-//W3C//DTD SVG 20010904//EN"
 "http://www.w3.org/TR/2001/REC-SVG-20010904/DTD/svg10.dtd">
<svg version="1.0" xmlns="http://www.w3.org/2000/svg"
 width="512.000000pt" height="512.000000pt" viewBox="0 0 512.000000 512.000000"
 preserveAspectRatio="xMidYMid meet">

<g transform="translate(0.000000,512.000000) scale(0.100000,-0.100000)"
fill="#000000" stroke="none">
<path d="M1699 3875 c-35 -19 -114 -172 -140 -272 -26 -100 -28 -247 -4 -328
13 -46 14 -60 4 -66 -59 -36 -365 -46 -509 -16 -140 30 -319 94 -465 168 -86
43 -150 69 -170 69 -66 0 -240 -159 -309 -283 -45 -81 -81 -184 -95 -275 -7
-47 -11 -327 -11 -817 0 -814 -2 -789 57 -814 21 -9 509 -11 1963 -8 l1935 3
547 60 c577 64 585 65 610 119 14 31 -35 515 -63 630 -94 375 -439 598 -964
621 -88 4 -129 10 -155 24 -19 10 -379 210 -800 445 -421 235 -897 502 -1058
591 -185 104 -302 164 -320 164 -15 -1 -39 -7 -53 -15z m221 -292 c66 -38 120
-72 120 -77 0 -31 -263 -227 -280 -210 -17 18 -29 133 -20 192 12 74 40 162
52 162 4 0 62 -30 128 -67z m410 -229 l100 -57 -24 -41 c-87 -150 -92 -183
-33 -232 25 -21 38 -25 69 -21 52 7 61 16 115 114 l47 83 50 -29 c28 -15 86
-47 129 -70 42 -24 77 -46 77 -51 0 -4 -20 -43 -45 -86 -54 -96 -58 -133 -16
-175 22 -22 39 -29 68 -29 54 0 76 19 125 110 24 44 47 80 52 80 8 0 135 -70
224 -122 l32 -20 -45 -82 c-62 -113 -60 -167 7 -202 36 -19 87 -12 111 14 8 9
34 51 57 92 24 41 44 76 45 78 2 3 266 -142 303 -166 9 -6 -33 -90 -164 -323
-96 -173 -176 -315 -177 -316 -1 -1 -70 3 -152 8 -1054 64 -1218 69 -2171 69
l-914 0 0 200 0 200 278 0 c247 0 280 2 306 18 21 13 71 92 186 297 l156 280
95 -3 c205 -8 416 35 593 121 138 68 238 138 335 237 42 42 77 78 78 79 1 0
48 -24 103 -55z m-1769 -203 c68 -32 177 -76 242 -97 l117 -37 -23 -41 c-12
-23 -67 -121 -122 -218 l-99 -178 -238 0 -238 0 0 113 c0 135 19 228 63 322
34 70 137 195 162 195 7 0 68 -27 136 -59z m3660 -697 c263 -36 454 -133 554
-280 43 -62 92 -184 74 -184 -5 0 -243 -25 -530 -55 -412 -44 -535 -54 -589
-48 l-68 8 161 288 161 287 63 0 c34 0 113 -7 174 -16z m677 -786 c7 -66 11
-122 10 -123 -2 -2 -223 -27 -493 -56 l-490 -54 -1862 -3 -1863 -2 0 175 0
175 910 0 910 0 908 -49 907 -50 490 53 c270 30 506 54 525 55 l36 1 12 -122z"/>
</g>
</svg>
