<?xml version="1.0" standalone="no"?>
<!DOCTYPE svg PUBLIC "-//W3C//DTD SVG 20010904//EN"
 "http://www.w3.org/TR/2001/REC-SVG-20010904/DTD/svg10.dtd">
<svg version="1.0" xmlns="http://www.w3.org/2000/svg"
 width="512.000000pt" height="512.000000pt" viewBox="0 0 512.000000 512.000000"
 preserveAspectRatio="xMidYMid meet">

<g transform="translate(0.000000,512.000000) scale(0.100000,-0.100000)"
fill="#000000" stroke="none">
<path d="M1595 4224 c-39 -20 -105 -84 -161 -155 -39 -52 -114 -185 -114 -206
0 -4 -242 -7 -537 -5 -397 3 -548 0 -580 -9 -51 -14 -97 -62 -112 -116 -7 -25
-11 -393 -11 -1111 l0 -1073 1678 4 c1485 3 1692 5 1812 20 171 21 350 47 373
53 16 5 17 29 17 328 l0 324 -96 17 c-52 9 -97 15 -98 14 -2 -2 -16 -60 -31
-129 -37 -169 -49 -189 -113 -190 -40 0 -82 38 -82 74 0 14 13 82 30 152 16
71 28 130 26 132 -2 2 -43 14 -91 27 -79 22 -86 23 -92 7 -29 -89 -106 -272
-122 -289 -29 -34 -93 -32 -120 3 -12 15 -21 37 -21 50 0 14 25 86 55 161 30
75 54 138 52 139 -6 6 -141 54 -152 54 -7 0 -15 -10 -19 -22 -11 -43 -170
-273 -197 -285 -32 -16 -84 -1 -99 27 -27 50 -10 87 146 326 13 19 10 22 -55
51 l-69 30 -111 -134 c-62 -74 -123 -139 -136 -145 -50 -23 -115 20 -115 77 0
25 22 57 113 164 61 74 116 139 121 146 6 7 -3 30 -26 63 l-35 52 -177 -160
c-158 -143 -180 -160 -212 -160 -59 0 -99 58 -78 114 6 16 311 301 350 327
l24 16 -54 77 c-30 43 -57 73 -61 67 -7 -13 -382 -352 -433 -393 -43 -35 -72
-35 -111 -2 -23 19 -31 34 -31 57 1 38 6 45 95 126 39 36 93 85 120 110 28 26
99 91 160 146 60 55 109 104 107 109 -2 6 -76 120 -88 135 -2 2 -63 -48 -137
-110 -322 -274 -409 -344 -430 -350 -35 -9 -76 10 -93 43 -21 40 -12 69 33
111 39 36 454 391 498 425 14 11 25 22 25 26 0 10 -421 620 -443 642 -31 31
-57 36 -92 18z m-582 -1119 c341 -72 501 -472 305 -764 -103 -154 -297 -239
-480 -212 -256 39 -445 274 -424 528 18 220 176 402 390 448 80 18 127 18 209
0z m685 -1161 c51 -36 46 -111 -10 -140 -81 -42 -158 66 -93 131 28 29 70 32
103 9z m587 -9 c41 -40 33 -105 -17 -131 -33 -17 -62 -11 -95 19 -50 45 -12
137 57 137 19 0 40 -9 55 -25z"/>
<path d="M3345 1390 c-55 -4 -830 -8 -1722 -9 l-1623 -1 0 -80 0 -80 1623 0
c1474 0 1809 4 1935 25 67 12 96 89 49 133 -26 24 -63 26 -262 12z"/>
</g>
</svg>
