<?xml version="1.0" standalone="no"?>
<!DOCTYPE svg PUBLIC "-//W3C//DTD SVG 20010904//EN"
 "http://www.w3.org/TR/2001/REC-SVG-20010904/DTD/svg10.dtd">
<svg version="1.0" xmlns="http://www.w3.org/2000/svg"
 width="512.000000pt" height="512.000000pt" viewBox="0 0 512.000000 512.000000"
 preserveAspectRatio="xMidYMid meet">

<g transform="translate(0.000000,512.000000) scale(0.100000,-0.100000)"
fill="#000000" stroke="none">
<path d="M2003 3806 c-60 -19 -99 -51 -130 -104 -28 -47 -28 -47 -33 -284 l-5
-238 -68 -49 c-93 -68 -144 -86 -242 -86 -65 0 -90 5 -136 26 -106 50 -173
129 -209 249 -36 119 -103 199 -209 249 -48 22 -69 26 -146 26 -76 0 -99 -5
-147 -27 -141 -66 -230 -227 -268 -487 -18 -121 -8 -334 20 -448 l23 -92 -40
-44 c-59 -64 -69 -115 -43 -224 l20 -86 -93 -96 c-52 -53 -103 -112 -113 -131
-26 -50 -25 -152 3 -205 27 -52 22 -48 283 -234 l225 -161 520 0 c328 0 535 4
560 11 22 5 101 39 175 75 l136 66 179 -73 180 -74 280 -3 c159 -2 336 1 409
8 342 30 636 109 931 249 104 50 636 344 735 406 158 99 205 330 110 533 -52
112 -176 217 -295 251 -22 7 -141 21 -265 32 -330 29 -523 72 -762 171 -95 39
-97 41 -83 61 22 32 18 74 -10 102 -35 36 -77 33 -123 -9 l-37 -34 -78 40
c-61 32 -77 44 -71 57 19 44 16 80 -10 105 -35 36 -76 34 -121 -6 l-36 -31
-80 38 c-61 30 -78 43 -73 55 19 43 16 79 -10 104 -35 36 -76 34 -122 -6 l-36
-32 -71 39 c-40 21 -150 93 -247 158 -96 66 -191 128 -210 138 -49 25 -117 31
-167 15z m185 -218 c94 -62 94 -62 71 -78 -13 -8 -74 -54 -135 -102 -62 -49
-115 -88 -118 -88 -3 0 -6 64 -6 143 0 113 3 147 16 165 27 38 67 29 172 -40z
m-1408 -1296 c223 -98 321 -132 451 -157 108 -21 295 -29 434 -18 230 17 384
-14 598 -123 151 -76 267 -117 397 -140 80 -13 150 -15 445 -11 461 7 404 -4
1218 231 303 87 423 118 410 105 -31 -30 -640 -369 -773 -430 -222 -101 -454
-168 -715 -205 -92 -13 -194 -18 -440 -18 l-320 -1 -191 78 c-105 42 -200 77
-212 77 -11 0 -91 -35 -178 -77 l-157 -78 -498 -3 -498 -3 -207 147 c-202 145
-231 173 -217 211 3 10 57 70 119 134 129 131 126 125 94 249 -11 41 -20 84
-20 96 0 28 19 45 39 35 9 -5 108 -49 221 -99z"/>
</g>
</svg>
