<?xml version="1.0" standalone="no"?>
<!DOCTYPE svg PUBLIC "-//W3C//DTD SVG 20010904//EN"
 "http://www.w3.org/TR/2001/REC-SVG-20010904/DTD/svg10.dtd">
<svg version="1.0" xmlns="http://www.w3.org/2000/svg"
 width="512.000000pt" height="512.000000pt" viewBox="0 0 512.000000 512.000000"
 preserveAspectRatio="xMidYMid meet">

<g transform="translate(0.000000,512.000000) scale(0.100000,-0.100000)"
fill="#000000" stroke="none">
<path d="M132 3919 c-63 -32 -96 -92 -90 -168 3 -47 11 -67 41 -108 46 -63 72
-121 87 -197 11 -52 8 -101 -26 -412 -37 -347 -37 -354 -21 -434 8 -44 29
-110 46 -146 l31 -66 -31 -25 c-39 -33 -42 -41 -89 -253 -43 -194 -43 -225 4
-269 l24 -23 -54 -161 c-30 -91 -54 -179 -54 -202 0 -69 29 -134 84 -191 88
-90 -18 -84 1415 -84 1356 1 1279 -3 1301 54 11 31 -7 79 -35 90 -9 3 -580 6
-1268 6 -1224 0 -1253 1 -1284 20 -37 22 -63 67 -62 107 0 15 24 96 53 178
l53 150 123 5 c113 5 123 7 141 29 26 32 24 73 -4 99 -22 21 -33 22 -170 22
-111 0 -147 3 -147 13 1 6 15 75 33 152 l32 140 590 3 c596 2 681 -1 752 -34
23 -10 130 -109 268 -246 l230 -228 -325 0 -326 0 -104 76 c-170 123 -156 118
-372 122 l-187 4 -26 -26 c-32 -32 -32 -70 0 -101 24 -25 27 -25 189 -25 l165
0 78 -53 c43 -30 107 -74 141 -98 l64 -44 409 -3 409 -3 35 33 c27 25 38 44
42 76 4 27 11 42 20 42 8 0 292 -30 631 -66 543 -59 647 -67 871 -71 373 -8
615 21 969 112 95 25 176 45 178 45 7 0 -8 -52 -24 -85 -20 -42 -71 -94 -112
-114 -88 -45 -400 -136 -585 -171 -243 -45 -326 -52 -755 -56 -228 -3 -425 -7
-437 -10 -13 -2 -30 -18 -38 -34 -14 -26 -14 -34 -1 -65 10 -22 24 -37 41 -41
14 -3 213 -4 443 -1 348 4 442 8 569 26 349 48 756 163 881 248 161 110 209
297 136 533 -64 208 -121 267 -341 360 -159 67 -197 74 -225 39 -23 -27 -23
-81 -1 -101 10 -9 74 -39 143 -67 149 -61 179 -79 214 -124 28 -37 79 -174 68
-181 -16 -10 -313 -87 -407 -105 -230 -46 -338 -55 -640 -56 -250 0 -325 4
-545 28 -140 15 -265 30 -277 32 -21 5 -17 16 84 220 106 213 106 214 94 255
-16 55 -40 74 -160 133 -117 58 -163 64 -208 31 -20 -14 -71 -105 -171 -303
l-143 -283 -77 7 c-42 4 -79 9 -82 12 -2 2 63 139 145 303 162 324 170 351
129 407 -27 36 -237 142 -282 143 -74 0 -82 -12 -254 -354 l-159 -318 -132
129 c-149 146 -198 176 -322 196 l-76 12 -307 244 c-169 134 -422 335 -563
447 l-256 204 -6 93 c-7 115 -37 211 -95 296 -62 93 -60 96 78 96 102 -1 121
-4 170 -26 80 -38 114 -71 187 -182 136 -211 311 -336 549 -393 148 -36 418
-11 494 45 35 25 39 75 9 107 -27 29 -42 29 -139 3 -96 -25 -250 -27 -347 -4
-179 44 -334 160 -448 335 -132 203 -255 270 -500 270 -92 0 -117 -3 -153 -21z
m440 -1001 c133 -107 334 -267 446 -356 l204 -162 -124 0 -123 0 -335 266
c-184 146 -339 269 -343 274 -5 4 -6 47 -2 95 6 64 11 85 20 81 7 -2 123 -92
257 -198z m-62 -342 l215 -171 -170 -3 -169 -3 -23 28 c-55 66 -102 196 -103
284 0 39 7 52 24 42 6 -4 108 -84 226 -177z m1970 -26 c33 -17 60 -35 60 -40
0 -6 -68 -145 -150 -311 l-151 -300 -47 7 c-26 3 -57 15 -69 26 l-22 20 157
314 c86 173 158 314 160 314 1 0 29 -14 62 -30z m560 -270 l60 -30 -105 -211
-105 -210 -33 5 c-17 3 -53 8 -79 11 l-48 6 115 230 c63 126 120 229 125 229
6 0 37 -14 70 -30z"/>
<path d="M2172 3919 c-52 -26 -75 -54 -102 -127 -30 -79 -81 -169 -128 -222
-21 -25 -44 -55 -51 -67 -25 -48 14 -103 72 -103 22 0 40 11 69 43 59 64 127
170 163 255 46 110 51 111 136 27 39 -39 84 -87 100 -107 l30 -37 -74 -83
c-101 -112 -121 -154 -122 -244 0 -59 5 -80 30 -129 17 -32 46 -70 65 -86 35
-27 1142 -597 1230 -633 33 -13 62 -17 110 -14 80 6 135 33 186 91 l39 44 150
-63 c83 -35 162 -64 178 -64 62 0 93 88 43 127 -13 11 -103 52 -199 92 -97 40
-236 103 -309 139 l-133 67 -6 43 c-7 53 -30 77 -162 166 -104 70 -135 79
-203 54 -31 -11 -35 -9 -103 41 -68 51 -71 55 -71 94 0 57 -20 84 -125 173
-101 85 -141 107 -193 102 -34 -3 -41 3 -224 197 -110 117 -206 209 -230 223
-52 28 -110 28 -166 1z m436 -490 c20 -23 38 -45 40 -50 4 -10 -156 -239 -167
-239 -16 0 -52 49 -62 83 -14 50 6 91 83 177 34 39 63 70 65 70 2 0 20 -19 41
-41z m290 -158 c30 -25 51 -50 48 -57 -3 -7 -40 -63 -82 -123 l-77 -110 -79
41 c-51 26 -77 45 -74 53 3 8 44 70 92 139 75 107 90 123 103 113 9 -6 40 -32
69 -56z m262 -322 c0 -14 -71 -109 -81 -109 -14 0 -149 69 -149 76 0 3 21 36
47 73 l47 68 68 -50 c37 -27 68 -53 68 -58z m265 -55 c36 -25 65 -50 65 -55 0
-9 -76 -123 -100 -152 -4 -5 -44 10 -89 33 l-82 41 62 89 c34 50 66 90 70 90
5 0 38 -21 74 -46z m261 -256 l97 -51 -22 -18 c-45 -36 -87 -35 -168 4 l-73
37 28 40 c15 21 30 39 34 40 4 0 51 -23 104 -52z"/>
</g>
</svg>
