<svg xmlns="http://www.w3.org/2000/svg" xmlns:xlink="http://www.w3.org/1999/xlink" width="425" zoomAndPan="magnify" viewBox="0 0 318.75 95.999999" height="128" preserveAspectRatio="xMidYMid meet" version="1.2"><defs/><g id="c997451307"><g style="fill:#d4d400;fill-opacity:1;"><g transform="translate(10.954777, 55.684077)"><path style="stroke:none" d="M 12.484375 0.4375 C 10.242188 0.4375 8.160156 0.125 6.234375 -0.5 C 4.316406 -1.125 2.804688 -1.84375 1.703125 -2.65625 L 1.53125 -9.203125 L 2.09375 -9.296875 C 2.707031 -7.640625 3.546875 -6.148438 4.609375 -4.828125 C 5.671875 -3.503906 6.957031 -2.445312 8.46875 -1.65625 C 9.976562 -0.875 11.691406 -0.484375 13.609375 -0.484375 C 14.628906 -0.484375 15.578125 -0.691406 16.453125 -1.109375 C 17.328125 -1.535156 18.039062 -2.15625 18.59375 -2.96875 C 19.144531 -3.78125 19.421875 -4.785156 19.421875 -5.984375 C 19.421875 -7.054688 19.113281 -7.992188 18.5 -8.796875 C 17.894531 -9.597656 17.117188 -10.296875 16.171875 -10.890625 C 15.222656 -11.484375 14.222656 -12.003906 13.171875 -12.453125 C 12.128906 -12.910156 11.171875 -13.3125 10.296875 -13.65625 C 8.816406 -14.300781 7.453125 -14.941406 6.203125 -15.578125 C 4.953125 -16.222656 3.945312 -17.046875 3.1875 -18.046875 C 2.425781 -19.046875 2.046875 -20.390625 2.046875 -22.078125 C 2.046875 -24.785156 3.054688 -26.925781 5.078125 -28.5 C 7.097656 -30.070312 9.828125 -30.859375 13.265625 -30.859375 C 14.890625 -30.859375 16.40625 -30.695312 17.8125 -30.375 C 19.226562 -30.050781 20.503906 -29.597656 21.640625 -29.015625 L 21.8125 -23.34375 L 21.34375 -23.171875 C 20.4375 -25.410156 19.117188 -27.125 17.390625 -28.3125 C 15.660156 -29.507812 13.734375 -30.109375 11.609375 -30.109375 C 9.859375 -30.109375 8.378906 -29.617188 7.171875 -28.640625 C 5.972656 -27.671875 5.375 -26.328125 5.375 -24.609375 C 5.375 -23.648438 5.613281 -22.8125 6.09375 -22.09375 C 6.570312 -21.382812 7.207031 -20.769531 8 -20.25 C 8.800781 -19.726562 9.660156 -19.269531 10.578125 -18.875 C 11.492188 -18.476562 12.390625 -18.109375 13.265625 -17.765625 C 14.367188 -17.328125 15.492188 -16.859375 16.640625 -16.359375 C 17.796875 -15.867188 18.851562 -15.285156 19.8125 -14.609375 C 20.769531 -13.941406 21.539062 -13.144531 22.125 -12.21875 C 22.707031 -11.289062 23 -10.171875 23 -8.859375 C 23 -7.378906 22.691406 -6.054688 22.078125 -4.890625 C 21.472656 -3.722656 20.660156 -2.742188 19.640625 -1.953125 C 18.617188 -1.171875 17.484375 -0.578125 16.234375 -0.171875 C 14.984375 0.234375 13.734375 0.4375 12.484375 0.4375 Z M 12.484375 0.4375 "/></g></g><g style="fill:#d4d400;fill-opacity:1;"><g transform="translate(35.082789, 55.684077)"><path style="stroke:none" d="M 17.890625 0 C 16.722656 0 16.140625 -0.582031 16.140625 -1.75 L 16.140625 -8.953125 C 15.734375 -7.265625 15.125 -5.707031 14.3125 -4.28125 C 13.5 -2.851562 12.492188 -1.707031 11.296875 -0.84375 C 10.109375 0.0078125 8.757812 0.4375 7.25 0.4375 C 5.644531 0.4375 4.253906 -0.0546875 3.078125 -1.046875 C 1.898438 -2.035156 1.3125 -3.445312 1.3125 -5.28125 C 1.3125 -6.789062 1.769531 -8.019531 2.6875 -8.96875 C 3.601562 -9.914062 4.816406 -10.707031 6.328125 -11.34375 C 7.835938 -11.988281 9.492188 -12.554688 11.296875 -13.046875 L 16.140625 -14.4375 C 16.117188 -16.59375 15.578125 -18.128906 14.515625 -19.046875 C 13.453125 -19.960938 12.101562 -20.421875 10.46875 -20.421875 C 9.25 -20.421875 8.039062 -20.132812 6.84375 -19.5625 C 5.65625 -19 4.507812 -18.050781 3.40625 -16.71875 L 2.96875 -17.109375 C 4.1875 -18.617188 5.625 -19.832031 7.28125 -20.75 C 8.945312 -21.664062 10.769531 -22.125 12.75 -22.125 C 15.394531 -22.125 17.347656 -21.429688 18.609375 -20.046875 C 19.878906 -18.671875 20.515625 -16.644531 20.515625 -13.96875 L 20.515625 -5.546875 C 20.515625 -3.972656 20.625 -2.8125 20.84375 -2.0625 C 21.0625 -1.320312 21.53125 -0.835938 22.25 -0.609375 L 22.25 0 Z M 5.375 -6.8125 C 5.375 -5.382812 5.800781 -4.347656 6.65625 -3.703125 C 7.507812 -3.066406 8.429688 -2.75 9.421875 -2.75 C 10.503906 -2.75 11.457031 -3.078125 12.28125 -3.734375 C 13.113281 -4.390625 13.8125 -5.234375 14.375 -6.265625 C 14.945312 -7.296875 15.382812 -8.378906 15.6875 -9.515625 C 15.988281 -10.648438 16.140625 -11.710938 16.140625 -12.703125 L 16.140625 -13.828125 L 11.484375 -12.484375 C 10.953125 -12.335938 10.34375 -12.125 9.65625 -11.84375 C 8.976562 -11.570312 8.3125 -11.21875 7.65625 -10.78125 C 7 -10.34375 6.453125 -9.796875 6.015625 -9.140625 C 5.585938 -8.484375 5.375 -7.707031 5.375 -6.8125 Z M 5.375 -6.8125 "/></g></g><g style="fill:#d4d400;fill-opacity:1;"><g transform="translate(58.207274, 55.684077)"><path style="stroke:none" d="M 8.203125 0.4375 C 6.722656 0.4375 5.597656 -0.0703125 4.828125 -1.09375 C 4.054688 -2.113281 3.671875 -3.800781 3.671875 -6.15625 L 3.671875 -21.125 L 0.875 -21.125 L 0.875 -21.8125 L 7.421875 -27.578125 L 8.109375 -27.578125 L 8.109375 -21.8125 L 14.875 -21.8125 L 14.703125 -21.125 L 8.109375 -21.125 L 8.109375 -6.109375 C 8.109375 -4.773438 8.351562 -3.789062 8.84375 -3.15625 C 9.34375 -2.53125 10.078125 -2.21875 11.046875 -2.21875 C 11.535156 -2.21875 12.117188 -2.359375 12.796875 -2.640625 C 13.484375 -2.921875 14.191406 -3.507812 14.921875 -4.40625 L 15.359375 -3.96875 C 14.191406 -2.632812 13.035156 -1.566406 11.890625 -0.765625 C 10.742188 0.0351562 9.515625 0.4375 8.203125 0.4375 Z M 8.203125 0.4375 "/></g></g><g style="fill:#d4d400;fill-opacity:1;"><g transform="translate(73.739967, 55.684077)"><path style="stroke:none" d="M 1.21875 0 L 1.21875 -0.609375 C 1.945312 -0.835938 2.421875 -1.320312 2.640625 -2.0625 C 2.859375 -2.8125 2.96875 -3.972656 2.96875 -5.546875 L 2.96875 -15.578125 C 2.96875 -16.859375 2.8125 -17.703125 2.5 -18.109375 C 2.195312 -18.515625 1.769531 -18.835938 1.21875 -19.078125 L 1.21875 -19.6875 L 6.984375 -22.21875 L 7.421875 -21.859375 L 7.421875 -5.546875 C 7.421875 -3.972656 7.53125 -2.8125 7.75 -2.0625 C 7.96875 -1.320312 8.441406 -0.835938 9.171875 -0.609375 L 9.171875 0 Z M 1.96875 -26.671875 C 1.96875 -27.515625 2.253906 -28.222656 2.828125 -28.796875 C 3.410156 -29.378906 4.113281 -29.671875 4.9375 -29.671875 C 5.800781 -29.671875 6.507812 -29.378906 7.0625 -28.796875 C 7.625 -28.222656 7.90625 -27.515625 7.90625 -26.671875 C 7.90625 -25.847656 7.617188 -25.144531 7.046875 -24.5625 C 6.484375 -23.988281 5.78125 -23.703125 4.9375 -23.703125 C 4.113281 -23.703125 3.410156 -23.988281 2.828125 -24.5625 C 2.253906 -25.144531 1.96875 -25.847656 1.96875 -26.671875 Z M 1.96875 -26.671875 "/></g></g><g style="fill:#d4d400;fill-opacity:1;"><g transform="translate(84.211467, 55.684077)"><path style="stroke:none" d="M 1.21875 0 L 1.21875 -0.609375 C 1.945312 -0.835938 2.421875 -1.320312 2.640625 -2.0625 C 2.859375 -2.8125 2.96875 -3.972656 2.96875 -5.546875 L 2.96875 -15.578125 C 2.96875 -16.859375 2.8125 -17.703125 2.5 -18.109375 C 2.195312 -18.515625 1.769531 -18.835938 1.21875 -19.078125 L 1.21875 -19.6875 L 6.984375 -22.21875 L 7.421875 -21.859375 L 7.421875 -16.578125 C 8.085938 -18.148438 9.148438 -19.429688 10.609375 -20.421875 C 11.421875 -21.003906 12.253906 -21.429688 13.109375 -21.703125 C 13.972656 -21.984375 14.925781 -22.125 15.96875 -22.125 C 16.726562 -22.125 17.382812 -22.019531 17.9375 -21.8125 C 18.488281 -21.613281 18.765625 -21.28125 18.765625 -20.8125 C 18.765625 -20.5 18.65625 -20.113281 18.4375 -19.65625 C 18.21875 -19.207031 17.890625 -18.816406 17.453125 -18.484375 C 17.015625 -18.148438 16.460938 -17.984375 15.796875 -17.984375 C 15.179688 -17.984375 14.429688 -18.09375 13.546875 -18.3125 C 12.660156 -18.53125 11.519531 -18.859375 10.125 -19.296875 C 9.570312 -18.828125 8.992188 -18.140625 8.390625 -17.234375 C 7.796875 -16.335938 7.472656 -15.335938 7.421875 -14.234375 L 7.421875 -5.546875 C 7.421875 -3.972656 7.53125 -2.8125 7.75 -2.0625 C 7.96875 -1.320312 8.441406 -0.835938 9.171875 -0.609375 L 9.171875 0 Z M 1.21875 0 "/></g></g><g style="fill:#d4d400;fill-opacity:1;"><g transform="translate(101.750865, 55.684077)"><path style="stroke:none" d="M 13 0.4375 C 11.570312 0.4375 10.164062 0.226562 8.78125 -0.1875 C 7.40625 -0.613281 6.15625 -1.269531 5.03125 -2.15625 C 3.914062 -3.039062 3.023438 -4.160156 2.359375 -5.515625 C 1.691406 -6.867188 1.359375 -8.476562 1.359375 -10.34375 C 1.359375 -12.113281 1.675781 -13.71875 2.3125 -15.15625 C 2.945312 -16.601562 3.816406 -17.84375 4.921875 -18.875 C 6.035156 -19.90625 7.289062 -20.703125 8.6875 -21.265625 C 10.082031 -21.835938 11.519531 -22.125 13 -22.125 C 14.375 -22.125 15.734375 -21.921875 17.078125 -21.515625 C 18.429688 -21.109375 19.679688 -20.457031 20.828125 -19.5625 C 21.984375 -18.675781 22.898438 -17.550781 23.578125 -16.1875 C 24.265625 -14.820312 24.609375 -13.179688 24.609375 -11.265625 C 24.609375 -9.398438 24.25 -7.738281 23.53125 -6.28125 C 22.820312 -4.832031 21.894531 -3.613281 20.75 -2.625 C 19.601562 -1.632812 18.34375 -0.875 16.96875 -0.34375 C 15.601562 0.175781 14.28125 0.4375 13 0.4375 Z M 5.71875 -13.609375 C 5.71875 -12.335938 5.90625 -10.941406 6.28125 -9.421875 C 6.664062 -7.910156 7.226562 -6.476562 7.96875 -5.125 C 8.707031 -3.769531 9.628906 -2.664062 10.734375 -1.8125 C 11.835938 -0.957031 13.101562 -0.53125 14.53125 -0.53125 C 15.957031 -0.53125 17.082031 -0.890625 17.90625 -1.609375 C 18.738281 -2.335938 19.328125 -3.269531 19.671875 -4.40625 C 20.023438 -5.539062 20.203125 -6.71875 20.203125 -7.9375 C 20.203125 -9.332031 19.976562 -10.820312 19.53125 -12.40625 C 19.082031 -14 18.441406 -15.492188 17.609375 -16.890625 C 16.773438 -18.285156 15.773438 -19.394531 14.609375 -20.21875 C 13.453125 -21.050781 12.175781 -21.394531 10.78125 -21.25 C 9.53125 -21.132812 8.53125 -20.707031 7.78125 -19.96875 C 7.039062 -19.226562 6.507812 -18.296875 6.1875 -17.171875 C 5.875 -16.054688 5.71875 -14.867188 5.71875 -13.609375 Z M 5.71875 -13.609375 "/></g></g><g style="fill:#d4d400;fill-opacity:1;"><g transform="translate(128.147728, 55.684077)"><path style="stroke:none" d=""/></g></g><g style="fill:#d4d400;fill-opacity:1;"><g transform="translate(136.873969, 55.684077)"><path style="stroke:none" d="M 2.046875 0 L 2.046875 -0.609375 C 2.773438 -0.835938 3.25 -1.320312 3.46875 -2.0625 C 3.6875 -2.8125 3.796875 -3.972656 3.796875 -5.546875 L 3.796875 -25 C 3.796875 -26.570312 3.6875 -27.726562 3.46875 -28.46875 C 3.25 -29.21875 2.773438 -29.707031 2.046875 -29.9375 L 2.046875 -30.546875 L 12.828125 -30.546875 C 16.410156 -30.546875 18.9375 -30.03125 20.40625 -29 C 21.875 -27.96875 22.609375 -26.5625 22.609375 -24.78125 C 22.609375 -23.300781 22.066406 -21.945312 20.984375 -20.71875 C 19.910156 -19.5 17.992188 -18.644531 15.234375 -18.15625 C 18.835938 -18.039062 21.546875 -17.238281 23.359375 -15.75 C 25.179688 -14.269531 26.109375 -12.4375 26.140625 -10.25 C 26.171875 -8.96875 25.921875 -7.71875 25.390625 -6.5 C 24.867188 -5.28125 24.035156 -4.179688 22.890625 -3.203125 C 21.742188 -2.234375 20.226562 -1.457031 18.34375 -0.875 C 16.46875 -0.289062 14.191406 0 11.515625 0 Z M 8.421875 -4.5 C 8.421875 -2.925781 8.566406 -1.898438 8.859375 -1.421875 C 9.148438 -0.941406 9.757812 -0.703125 10.6875 -0.703125 L 11.90625 -0.703125 C 15.050781 -0.703125 17.34375 -1.445312 18.78125 -2.9375 C 20.226562 -4.4375 20.953125 -6.335938 20.953125 -8.640625 C 20.953125 -11.253906 20.191406 -13.398438 18.671875 -15.078125 C 17.160156 -16.753906 14.773438 -17.59375 11.515625 -17.59375 L 8.421875 -17.59375 Z M 8.421875 -18.28125 L 12.3125 -18.28125 C 13.90625 -18.28125 15.148438 -18.816406 16.046875 -19.890625 C 16.953125 -20.972656 17.40625 -22.269531 17.40625 -23.78125 C 17.40625 -25.707031 16.765625 -27.195312 15.484375 -28.25 C 14.210938 -29.3125 12.457031 -29.84375 10.21875 -29.84375 L 8.421875 -29.84375 Z M 8.421875 -18.28125 "/></g></g><g style="fill:#d4d400;fill-opacity:1;"><g transform="translate(164.44884, 55.684077)"><path style="stroke:none" d="M 9.171875 0.4375 C 6.867188 0.4375 5.203125 -0.257812 4.171875 -1.65625 C 3.140625 -3.050781 2.625 -5.070312 2.625 -7.71875 L 2.625 -15.578125 C 2.625 -16.859375 2.46875 -17.703125 2.15625 -18.109375 C 1.851562 -18.515625 1.425781 -18.835938 0.875 -19.078125 L 0.875 -19.6875 L 6.640625 -22.21875 L 7.0625 -21.859375 L 7.0625 -8.296875 C 7.0625 -5.960938 7.320312 -4.210938 7.84375 -3.046875 C 8.375 -1.890625 9.484375 -1.3125 11.171875 -1.3125 C 12.160156 -1.3125 13.175781 -1.59375 14.21875 -2.15625 C 15.269531 -2.726562 16.332031 -3.550781 17.40625 -4.625 L 17.40625 -15.578125 C 17.40625 -16.859375 17.253906 -17.703125 16.953125 -18.109375 C 16.648438 -18.515625 16.222656 -18.835938 15.671875 -19.078125 L 15.671875 -19.6875 L 21.421875 -22.21875 L 21.859375 -21.859375 L 21.859375 -5.546875 C 21.859375 -3.972656 21.96875 -2.8125 22.1875 -2.0625 C 22.40625 -1.320312 22.878906 -0.835938 23.609375 -0.609375 L 23.609375 0 L 19.15625 0 C 17.988281 0 17.40625 -0.582031 17.40625 -1.75 L 17.40625 -3.703125 C 16.15625 -2.515625 14.8125 -1.523438 13.375 -0.734375 C 11.9375 0.046875 10.535156 0.4375 9.171875 0.4375 Z M 9.171875 0.4375 "/></g></g><g style="fill:#d4d400;fill-opacity:1;"><g transform="translate(189.362241, 55.684077)"><path style="stroke:none" d="M 9.640625 0.34375 C 8.046875 0.34375 6.550781 0.140625 5.15625 -0.265625 C 3.757812 -0.671875 2.640625 -1.148438 1.796875 -1.703125 L 1.359375 -7.421875 L 1.796875 -7.5 C 2.722656 -5.40625 3.945312 -3.695312 5.46875 -2.375 C 7 -1.050781 8.738281 -0.375 10.6875 -0.34375 C 12.0625 -0.320312 13.144531 -0.695312 13.9375 -1.46875 C 14.738281 -2.238281 15.140625 -3.117188 15.140625 -4.109375 C 15.140625 -5.503906 14.609375 -6.550781 13.546875 -7.25 C 12.484375 -7.945312 11.007812 -8.585938 9.125 -9.171875 C 7.613281 -9.628906 6.296875 -10.113281 5.171875 -10.625 C 4.046875 -11.132812 3.1875 -11.789062 2.59375 -12.59375 C 2 -13.394531 1.703125 -14.445312 1.703125 -15.75 C 1.703125 -16.851562 2 -17.894531 2.59375 -18.875 C 3.1875 -19.851562 4.109375 -20.640625 5.359375 -21.234375 C 6.617188 -21.828125 8.238281 -22.125 10.21875 -22.125 C 11.46875 -22.125 12.703125 -22.019531 13.921875 -21.8125 C 15.140625 -21.613281 16.113281 -21.351562 16.84375 -21.03125 L 17.0625 -16.234375 L 16.546875 -16.140625 C 15.816406 -17.679688 14.800781 -18.960938 13.5 -19.984375 C 12.207031 -21.003906 10.765625 -21.515625 9.171875 -21.515625 C 7.796875 -21.515625 6.691406 -21.191406 5.859375 -20.546875 C 5.035156 -19.910156 4.625 -19.128906 4.625 -18.203125 C 4.625 -16.972656 5.15625 -16.03125 6.21875 -15.375 C 7.28125 -14.726562 8.785156 -14.066406 10.734375 -13.390625 C 11.898438 -13.015625 13.039062 -12.59375 14.15625 -12.125 C 15.28125 -11.664062 16.210938 -11.019531 16.953125 -10.1875 C 17.691406 -9.363281 18.0625 -8.207031 18.0625 -6.71875 C 18.0625 -5.613281 17.800781 -4.515625 17.28125 -3.421875 C 16.757812 -2.335938 15.882812 -1.4375 14.65625 -0.71875 C 13.4375 -0.0078125 11.765625 0.34375 9.640625 0.34375 Z M 9.640625 0.34375 "/></g></g><g style="fill:#d4d400;fill-opacity:1;"><g transform="translate(208.908993, 55.684077)"><path style="stroke:none" d="M 1.21875 0 L 1.21875 -0.609375 C 1.945312 -0.835938 2.421875 -1.320312 2.640625 -2.0625 C 2.859375 -2.8125 2.96875 -3.972656 2.96875 -5.546875 L 2.96875 -15.578125 C 2.96875 -16.859375 2.8125 -17.703125 2.5 -18.109375 C 2.195312 -18.515625 1.769531 -18.835938 1.21875 -19.078125 L 1.21875 -19.6875 L 6.984375 -22.21875 L 7.421875 -21.859375 L 7.421875 -5.546875 C 7.421875 -3.972656 7.53125 -2.8125 7.75 -2.0625 C 7.96875 -1.320312 8.441406 -0.835938 9.171875 -0.609375 L 9.171875 0 Z M 1.96875 -26.671875 C 1.96875 -27.515625 2.253906 -28.222656 2.828125 -28.796875 C 3.410156 -29.378906 4.113281 -29.671875 4.9375 -29.671875 C 5.800781 -29.671875 6.507812 -29.378906 7.0625 -28.796875 C 7.625 -28.222656 7.90625 -27.515625 7.90625 -26.671875 C 7.90625 -25.847656 7.617188 -25.144531 7.046875 -24.5625 C 6.484375 -23.988281 5.78125 -23.703125 4.9375 -23.703125 C 4.113281 -23.703125 3.410156 -23.988281 2.828125 -24.5625 C 2.253906 -25.144531 1.96875 -25.847656 1.96875 -26.671875 Z M 1.96875 -26.671875 "/></g></g><g style="fill:#d4d400;fill-opacity:1;"><g transform="translate(219.380493, 55.684077)"><path style="stroke:none" d="M 1.21875 0 L 1.21875 -0.609375 C 1.945312 -0.835938 2.421875 -1.320312 2.640625 -2.0625 C 2.859375 -2.8125 2.96875 -3.972656 2.96875 -5.546875 L 2.96875 -15.578125 C 2.96875 -16.859375 2.8125 -17.703125 2.5 -18.109375 C 2.195312 -18.515625 1.769531 -18.835938 1.21875 -19.078125 L 1.21875 -19.6875 L 6.984375 -22.21875 L 7.421875 -21.859375 L 7.421875 -18.203125 C 8.609375 -19.191406 9.972656 -20.09375 11.515625 -20.90625 C 13.054688 -21.71875 14.671875 -22.125 16.359375 -22.125 C 18.367188 -22.125 19.988281 -21.5625 21.21875 -20.4375 C 22.457031 -19.320312 23.078125 -17.484375 23.078125 -14.921875 L 23.078125 -5.546875 C 23.078125 -3.972656 23.1875 -2.8125 23.40625 -2.0625 C 23.625 -1.320312 24.097656 -0.835938 24.828125 -0.609375 L 24.828125 0 L 16.890625 0 L 16.890625 -0.609375 C 17.617188 -0.835938 18.09375 -1.320312 18.3125 -2.0625 C 18.53125 -2.8125 18.640625 -3.972656 18.640625 -5.546875 L 18.640625 -14.140625 C 18.640625 -16.117188 18.222656 -17.648438 17.390625 -18.734375 C 16.554688 -19.828125 15.328125 -20.375 13.703125 -20.375 C 12.679688 -20.375 11.675781 -20.125 10.6875 -19.625 C 9.695312 -19.132812 8.609375 -18.410156 7.421875 -17.453125 L 7.421875 -5.546875 C 7.421875 -3.972656 7.53125 -2.8125 7.75 -2.0625 C 7.96875 -1.320312 8.441406 -0.835938 9.171875 -0.609375 L 9.171875 0 Z M 1.21875 0 "/></g></g><g style="fill:#d4d400;fill-opacity:1;"><g transform="translate(245.079232, 55.684077)"><path style="stroke:none" d="M 11.703125 0.4375 C 10.472656 0.4375 9.253906 0.21875 8.046875 -0.21875 C 6.835938 -0.65625 5.722656 -1.304688 4.703125 -2.171875 C 3.691406 -3.046875 2.878906 -4.140625 2.265625 -5.453125 C 1.660156 -6.765625 1.359375 -8.304688 1.359375 -10.078125 C 1.359375 -11.941406 1.679688 -13.613281 2.328125 -15.09375 C 2.984375 -16.582031 3.863281 -17.847656 4.96875 -18.890625 C 6.082031 -19.941406 7.3125 -20.742188 8.65625 -21.296875 C 10.007812 -21.847656 11.398438 -22.125 12.828125 -22.125 C 14.804688 -22.125 16.460938 -21.726562 17.796875 -20.9375 C 19.140625 -20.15625 20.148438 -19.164062 20.828125 -17.96875 C 21.515625 -16.78125 21.859375 -15.546875 21.859375 -14.265625 L 5.328125 -14.265625 C 5.296875 -14.035156 5.269531 -13.800781 5.25 -13.5625 C 5.238281 -13.332031 5.234375 -13.101562 5.234375 -12.875 C 5.234375 -10.976562 5.601562 -9.289062 6.34375 -7.8125 C 7.09375 -6.332031 8.140625 -5.175781 9.484375 -4.34375 C 10.835938 -3.507812 12.429688 -3.09375 14.265625 -3.09375 C 15.898438 -3.09375 17.34375 -3.410156 18.59375 -4.046875 C 19.84375 -4.691406 20.914062 -5.523438 21.8125 -6.546875 L 22.21875 -6.109375 C 21.539062 -5.085938 20.707031 -4.078125 19.71875 -3.078125 C 18.726562 -2.078125 17.566406 -1.238281 16.234375 -0.5625 C 14.898438 0.101562 13.390625 0.4375 11.703125 0.4375 Z M 5.375 -14.875 L 17.453125 -14.875 C 17.273438 -16.070312 16.90625 -17.15625 16.34375 -18.125 C 15.78125 -19.101562 15.082031 -19.882812 14.25 -20.46875 C 13.414062 -21.050781 12.492188 -21.34375 11.484375 -21.34375 C 10.253906 -21.375 9.21875 -21.082031 8.375 -20.46875 C 7.53125 -19.851562 6.859375 -19.050781 6.359375 -18.0625 C 5.867188 -17.070312 5.539062 -16.007812 5.375 -14.875 Z M 5.375 -14.875 "/></g></g><g style="fill:#d4d400;fill-opacity:1;"><g transform="translate(268.378248, 55.684077)"><path style="stroke:none" d="M 9.640625 0.34375 C 8.046875 0.34375 6.550781 0.140625 5.15625 -0.265625 C 3.757812 -0.671875 2.640625 -1.148438 1.796875 -1.703125 L 1.359375 -7.421875 L 1.796875 -7.5 C 2.722656 -5.40625 3.945312 -3.695312 5.46875 -2.375 C 7 -1.050781 8.738281 -0.375 10.6875 -0.34375 C 12.0625 -0.320312 13.144531 -0.695312 13.9375 -1.46875 C 14.738281 -2.238281 15.140625 -3.117188 15.140625 -4.109375 C 15.140625 -5.503906 14.609375 -6.550781 13.546875 -7.25 C 12.484375 -7.945312 11.007812 -8.585938 9.125 -9.171875 C 7.613281 -9.628906 6.296875 -10.113281 5.171875 -10.625 C 4.046875 -11.132812 3.1875 -11.789062 2.59375 -12.59375 C 2 -13.394531 1.703125 -14.445312 1.703125 -15.75 C 1.703125 -16.851562 2 -17.894531 2.59375 -18.875 C 3.1875 -19.851562 4.109375 -20.640625 5.359375 -21.234375 C 6.617188 -21.828125 8.238281 -22.125 10.21875 -22.125 C 11.46875 -22.125 12.703125 -22.019531 13.921875 -21.8125 C 15.140625 -21.613281 16.113281 -21.351562 16.84375 -21.03125 L 17.0625 -16.234375 L 16.546875 -16.140625 C 15.816406 -17.679688 14.800781 -18.960938 13.5 -19.984375 C 12.207031 -21.003906 10.765625 -21.515625 9.171875 -21.515625 C 7.796875 -21.515625 6.691406 -21.191406 5.859375 -20.546875 C 5.035156 -19.910156 4.625 -19.128906 4.625 -18.203125 C 4.625 -16.972656 5.15625 -16.03125 6.21875 -15.375 C 7.28125 -14.726562 8.785156 -14.066406 10.734375 -13.390625 C 11.898438 -13.015625 13.039062 -12.59375 14.15625 -12.125 C 15.28125 -11.664062 16.210938 -11.019531 16.953125 -10.1875 C 17.691406 -9.363281 18.0625 -8.207031 18.0625 -6.71875 C 18.0625 -5.613281 17.800781 -4.515625 17.28125 -3.421875 C 16.757812 -2.335938 15.882812 -1.4375 14.65625 -0.71875 C 13.4375 -0.0078125 11.765625 0.34375 9.640625 0.34375 Z M 9.640625 0.34375 "/></g></g><g style="fill:#d4d400;fill-opacity:1;"><g transform="translate(287.925, 55.684077)"><path style="stroke:none" d="M 9.640625 0.34375 C 8.046875 0.34375 6.550781 0.140625 5.15625 -0.265625 C 3.757812 -0.671875 2.640625 -1.148438 1.796875 -1.703125 L 1.359375 -7.421875 L 1.796875 -7.5 C 2.722656 -5.40625 3.945312 -3.695312 5.46875 -2.375 C 7 -1.050781 8.738281 -0.375 10.6875 -0.34375 C 12.0625 -0.320312 13.144531 -0.695312 13.9375 -1.46875 C 14.738281 -2.238281 15.140625 -3.117188 15.140625 -4.109375 C 15.140625 -5.503906 14.609375 -6.550781 13.546875 -7.25 C 12.484375 -7.945312 11.007812 -8.585938 9.125 -9.171875 C 7.613281 -9.628906 6.296875 -10.113281 5.171875 -10.625 C 4.046875 -11.132812 3.1875 -11.789062 2.59375 -12.59375 C 2 -13.394531 1.703125 -14.445312 1.703125 -15.75 C 1.703125 -16.851562 2 -17.894531 2.59375 -18.875 C 3.1875 -19.851562 4.109375 -20.640625 5.359375 -21.234375 C 6.617188 -21.828125 8.238281 -22.125 10.21875 -22.125 C 11.46875 -22.125 12.703125 -22.019531 13.921875 -21.8125 C 15.140625 -21.613281 16.113281 -21.351562 16.84375 -21.03125 L 17.0625 -16.234375 L 16.546875 -16.140625 C 15.816406 -17.679688 14.800781 -18.960938 13.5 -19.984375 C 12.207031 -21.003906 10.765625 -21.515625 9.171875 -21.515625 C 7.796875 -21.515625 6.691406 -21.191406 5.859375 -20.546875 C 5.035156 -19.910156 4.625 -19.128906 4.625 -18.203125 C 4.625 -16.972656 5.15625 -16.03125 6.21875 -15.375 C 7.28125 -14.726562 8.785156 -14.066406 10.734375 -13.390625 C 11.898438 -13.015625 13.039062 -12.59375 14.15625 -12.125 C 15.28125 -11.664062 16.210938 -11.019531 16.953125 -10.1875 C 17.691406 -9.363281 18.0625 -8.207031 18.0625 -6.71875 C 18.0625 -5.613281 17.800781 -4.515625 17.28125 -3.421875 C 16.757812 -2.335938 15.882812 -1.4375 14.65625 -0.71875 C 13.4375 -0.0078125 11.765625 0.34375 9.640625 0.34375 Z M 9.640625 0.34375 "/></g></g></g></svg>