<?xml version="1.0" standalone="no"?>
<!DOCTYPE svg PUBLIC "-//W3C//DTD SVG 20010904//EN"
 "http://www.w3.org/TR/2001/REC-SVG-20010904/DTD/svg10.dtd">
<svg version="1.0" xmlns="http://www.w3.org/2000/svg"
 width="1366.000000pt" height="768.000000pt" viewBox="0 0 1366.000000 768.000000"
 preserveAspectRatio="xMidYMid meet">

<g transform="translate(0.000000,768.000000) scale(0.100000,-0.100000)"
fill="#000000" stroke="none">
<path d="M5993 3938 c16 -17 23 -19 25 -9 4 14 -15 31 -35 31 -7 0 -2 -10 10
-22z"/>
<path d="M6351 3946 c-9 -10 -9 -16 -1 -21 17 -10 37 12 24 25 -8 8 -15 6 -23
-4z"/>
<path d="M6825 3845 c0 -108 1 -115 20 -115 19 0 20 6 17 115 -3 100 -5 115
-20 115 -15 0 -17 -14 -17 -115z"/>
<path d="M6913 3949 c24 -14 21 -55 -5 -73 -22 -16 -22 -16 -2 -16 27 0 54
-30 54 -60 0 -13 -7 -32 -17 -42 -22 -25 2 -23 27 2 11 11 20 31 20 45 0 24
-34 65 -54 65 -6 0 -3 5 7 11 35 20 15 79 -27 79 -19 -1 -19 -1 -3 -11z"/>
<path d="M7366 3953 c-12 -12 -6 -33 9 -33 8 0 15 6 15 14 0 17 -14 28 -24 19z"/>
<path d="M5878 3924 c-16 -35 -4 -52 63 -89 42 -24 55 -37 57 -58 3 -21 -2
-29 -20 -36 -14 -6 -17 -10 -7 -10 23 -1 49 31 49 62 0 26 -40 67 -65 67 -7 0
-25 10 -40 21 -19 16 -26 28 -22 45 6 31 -1 30 -15 -2z"/>
<path d="M6249 3924 c-9 -12 -13 -37 -10 -82 4 -86 14 -112 43 -112 21 1 22 2
5 14 -15 11 -17 28 -16 100 1 48 -1 89 -3 92 -3 2 -11 -3 -19 -12z"/>
<path d="M6100 3890 c-11 -8 -8 -9 11 -5 21 5 30 1 43 -16 12 -18 13 -25 3
-31 -9 -6 -9 -8 0 -8 7 0 12 -8 11 -17 -4 -52 3 -83 18 -83 11 0 14 5 10 16
-3 9 -6 40 -6 69 0 35 -5 59 -16 69 -18 18 -52 21 -74 6z"/>
<path d="M6355 3892 c-5 -4 -10 -42 -10 -85 0 -70 2 -77 20 -77 19 0 20 6 17
85 -3 83 -7 92 -27 77z"/>
<path d="M6435 3892 c-6 -4 -10 -42 -10 -84 0 -63 3 -78 15 -78 12 0 15 15 13
81 -3 88 -4 91 -18 81z"/>
<path d="M6480 3890 c-8 -5 -10 -10 -5 -10 6 0 20 -3 33 -6 16 -5 22 -2 22 10
0 18 -27 21 -50 6z"/>
<path d="M6626 3889 c22 -6 37 -20 48 -43 19 -40 20 -59 5 -89 -10 -21 -9 -21
10 2 48 54 9 142 -61 140 l-33 -1 31 -9z"/>
<path d="M7033 3893 c-16 -6 -17 -88 -2 -132 9 -26 16 -31 42 -30 24 1 26 3
10 6 -26 5 -32 22 -35 104 -2 39 -7 55 -15 52z"/>
<path d="M7145 3892 c-6 -4 -9 -40 -7 -84 3 -65 6 -78 20 -78 15 0 17 11 14
85 -3 83 -7 92 -27 77z"/>
<path d="M7260 3893 c14 -3 33 -12 44 -21 17 -16 18 -16 15 3 -3 16 -13 20
-44 22 -23 0 -29 -1 -15 -4z"/>
<path d="M7373 3892 c-6 -4 -13 -40 -15 -85 -3 -72 -2 -77 17 -77 18 0 20 6
17 62 -4 99 -6 108 -19 100z"/>
<path d="M7445 3892 c-6 -4 -10 -42 -10 -84 0 -74 1 -78 22 -78 20 0 21 2 11
31 -6 17 -8 50 -6 74 6 46 -1 68 -17 57z"/>
<path d="M7500 3890 c-11 -8 -9 -9 11 -5 39 9 51 -13 47 -90 -3 -60 -1 -65 17
-65 19 0 20 5 15 68 -3 38 -11 76 -19 85 -15 19 -48 22 -71 7z"/>
<path d="M7708 3889 c13 -5 26 -18 29 -29 6 -23 33 -27 33 -6 0 19 -39 46 -65
45 -18 0 -18 -1 3 -10z"/>
<path d="M7816 3881 c-24 -26 -13 -56 27 -72 45 -18 67 -38 60 -57 -5 -13 -3
-14 6 -6 25 23 8 58 -39 81 -29 14 -45 28 -45 40 0 25 51 30 76 7 16 -15 19
-15 19 -2 0 33 -77 39 -104 9z"/>
<path d="M7966 3884 c-29 -28 -16 -57 37 -81 35 -17 47 -29 48 -45 l0 -23 11
22 c16 32 5 49 -47 72 -34 15 -46 25 -43 38 5 26 58 30 76 6 13 -17 14 -17 10
2 -4 27 -68 33 -92 9z"/>
<path d="M6561 3864 c-28 -36 -27 -79 4 -109 13 -14 31 -25 39 -25 11 0 8 7
-9 25 -19 18 -25 35 -25 68 0 23 5 48 12 55 7 7 9 12 6 12 -4 0 -16 -12 -27
-26z"/>
<path d="M7214 3876 c-12 -31 2 -52 49 -74 39 -18 48 -27 44 -43 -7 -24 -1
-24 13 0 15 30 3 48 -45 67 -43 16 -61 36 -49 55 3 5 3 9 -1 9 -3 0 -8 -6 -11
-14z"/>
<path d="M7641 3864 c-43 -54 -11 -134 54 -134 19 0 43 9 56 21 23 19 23 20 2
10 -37 -18 -70 -13 -92 15 -25 31 -26 49 -7 87 19 34 13 35 -13 1z"/>
<path d="M6066 3801 c-35 -38 -2 -81 50 -66 29 9 29 9 4 13 -27 4 -50 19 -50
33 0 4 7 15 16 23 8 9 11 16 6 16 -5 0 -17 -9 -26 -19z"/>
<path d="M5870 3767 c0 -18 30 -37 57 -36 14 0 15 2 3 6 -8 3 -25 15 -37 26
-20 17 -23 18 -23 4z"/>
<path d="M7200 3768 c0 -17 25 -42 37 -36 4 1 -2 14 -14 27 -17 18 -23 20 -23
9z"/>
<path d="M7800 3760 c0 -10 9 -22 21 -25 28 -9 29 -4 2 22 -21 21 -23 21 -23
3z"/>
<path d="M7950 3756 c0 -8 9 -18 21 -21 29 -10 31 -3 3 18 -20 15 -24 15 -24
3z"/>
</g>
</svg>
